<svg xmlns="http://www.w3.org/2000/svg" version="1.1" width="2000" height="1000" style="display: block;"><polygon stroke-linejoin="round" stroke-miterlimit="1" stroke-width="1" points="930,1099 703,1097 426,1099" style="fill:#7dffff;stroke:#7dffff;"/><polygon stroke-linejoin="round" stroke-miterlimit="1" stroke-width="1" points="1552,1099 1027,1096 1001,1099" style="fill:#70ffff;stroke:#70ffff;"/><polygon stroke-linejoin="round" stroke-miterlimit="1" stroke-width="1" points="1817,-101 1030,-101 1118,-100" style="fill:#269496;stroke:#269496;"/><polygon stroke-linejoin="round" stroke-miterlimit="1" stroke-width="1" points="1817,-101 1426,-87 1739,-88" style="fill:#3bb8b5;stroke:#3bb8b5;"/><polygon stroke-linejoin="round" stroke-miterlimit="1" stroke-width="1" points="1817,-101 1118,-100 1426,-87" style="fill:#43c5c0;stroke:#43c5c0;"/><polygon stroke-linejoin="round" stroke-miterlimit="1" stroke-width="1" points="2141,567 1968,327 1973,568" style="fill:#2ea2a2;stroke:#2ea2a2;"/><polygon stroke-linejoin="round" stroke-miterlimit="1" stroke-width="1" points="2144,1099 1851,987 1552,1099" style="fill:#30a4a4;stroke:#30a4a4;"/><polygon stroke-linejoin="round" stroke-miterlimit="1" stroke-width="1" points="2172,804 2141,567 1973,568" style="fill:#269496;stroke:#269496;"/><polygon stroke-linejoin="round" stroke-miterlimit="1" stroke-width="1" points="2190,164 2071,143 2159,286" style="fill:#35aeac;stroke:#35aeac;"/><polygon stroke-linejoin="round" stroke-miterlimit="1" stroke-width="1" points="2197,153 2071,143 2190,164" style="fill:#39b4b1;stroke:#39b4b1;"/><polygon stroke-linejoin="round" stroke-miterlimit="1" stroke-width="1" points="2201,623 2201,499 2141,567" style="fill:#269496;stroke:#269496;"/><polygon stroke-linejoin="round" stroke-miterlimit="1" stroke-width="1" points="2201,623 2172,804 2201,793" style="fill:#269496;stroke:#269496;"/><polygon stroke-linejoin="round" stroke-miterlimit="1" stroke-width="1" points="2201,623 2141,567 2172,804" style="fill:#269496;stroke:#269496;"/><polygon stroke-linejoin="round" stroke-miterlimit="1" stroke-width="1" points="2201,935 2144,1099 2201,1099" style="fill:#2c9d9e;stroke:#2c9d9e;"/><polygon stroke-linejoin="round" stroke-miterlimit="1" stroke-width="1" points="2201,935 2034,922 2144,1099" style="fill:#269496;stroke:#269496;"/><polygon stroke-linejoin="round" stroke-miterlimit="1" stroke-width="1" points="2201,-101 2071,143 2197,153" style="fill:#269496;stroke:#269496;"/><polygon stroke-linejoin="round" stroke-miterlimit="1" stroke-width="1" points="2201,-101 1931,3 2071,143" style="fill:#2b9c9d;stroke:#2b9c9d;"/><polygon stroke-linejoin="round" stroke-miterlimit="1" stroke-width="1" points="2201,-101 1895,-101 1931,3" style="fill:#2a9a9c;stroke:#2a9a9c;"/><polygon stroke-linejoin="round" stroke-miterlimit="1" stroke-width="1" points="2201,334 2197,153 2190,164" style="fill:#269496;stroke:#269496;"/><polygon stroke-linejoin="round" stroke-miterlimit="1" stroke-width="1" points="2201,334 2159,286 2201,367" style="fill:#5aede2;stroke:#5aede2;"/><polygon stroke-linejoin="round" stroke-miterlimit="1" stroke-width="1" points="2201,334 2190,164 2159,286" style="fill:#269496;stroke:#269496;"/><polygon stroke-linejoin="round" stroke-miterlimit="1" stroke-width="1" points="2201,334 2201,-101 2197,153" style="fill:#4bd3cc;stroke:#4bd3cc;"/><polygon stroke-linejoin="round" stroke-miterlimit="1" stroke-width="1" points="2201,846 2034,922 2201,935" style="fill:#269496;stroke:#269496;"/><polygon stroke-linejoin="round" stroke-miterlimit="1" stroke-width="1" points="2201,846 2172,804 2034,922" style="fill:#35aeac;stroke:#35aeac;"/><polygon stroke-linejoin="round" stroke-miterlimit="1" stroke-width="1" points="2201,846 2201,793 2172,804" style="fill:#2c9f9f;stroke:#2c9f9f;"/><polygon stroke-linejoin="round" stroke-miterlimit="1" stroke-width="1" points="2201,385 2141,567 2201,499" style="fill:#269496;stroke:#269496;"/><polygon stroke-linejoin="round" stroke-miterlimit="1" stroke-width="1" points="2201,385 1968,327 2141,567" style="fill:#29999a;stroke:#29999a;"/><polygon stroke-linejoin="round" stroke-miterlimit="1" stroke-width="1" points="2201,385 2201,367 2159,286" style="fill:#69fff8;stroke:#69fff8;"/><polygon stroke-linejoin="round" stroke-miterlimit="1" stroke-width="1" points="2201,385 2159,286 1968,327" style="fill:#29999a;stroke:#29999a;"/><polygon stroke-linejoin="round" stroke-miterlimit="1" stroke-width="1" points="2172,804 1973,568 1884,734" style="fill:#2a9b9c;stroke:#2a9b9c;"/><polygon stroke-linejoin="round" stroke-miterlimit="1" stroke-width="1" points="2034,922 1884,734 1901,854" style="fill:#32a9a8;stroke:#32a9a8;"/><polygon stroke-linejoin="round" stroke-miterlimit="1" stroke-width="1" points="2172,804 1884,734 2034,922" style="fill:#2ea2a2;stroke:#2ea2a2;"/><polygon stroke-linejoin="round" stroke-miterlimit="1" stroke-width="1" points="2159,286 2071,143 1968,327" style="fill:#2c9f9f;stroke:#2c9f9f;"/><polygon stroke-linejoin="round" stroke-miterlimit="1" stroke-width="1" points="2144,1099 2034,922 1851,987" style="fill:#2c9f9f;stroke:#2c9f9f;"/><polygon stroke-linejoin="round" stroke-miterlimit="1" stroke-width="1" points="1973,568 1968,327 1867,510" style="fill:#30a5a4;stroke:#30a5a4;"/><polygon stroke-linejoin="round" stroke-miterlimit="1" stroke-width="1" points="2071,143 1832,20 1968,327" style="fill:#30a4a4;stroke:#30a4a4;"/><polygon stroke-linejoin="round" stroke-miterlimit="1" stroke-width="1" points="2071,143 1931,3 1832,20" style="fill:#3cbab6;stroke:#3cbab6;"/><polygon stroke-linejoin="round" stroke-miterlimit="1" stroke-width="1" points="1851,987 1763,979 1552,1099" style="fill:#269496;stroke:#269496;"/><polygon stroke-linejoin="round" stroke-miterlimit="1" stroke-width="1" points="1968,327 1839,415 1867,510" style="fill:#2ea1a1;stroke:#2ea1a1;"/><polygon stroke-linejoin="round" stroke-miterlimit="1" stroke-width="1" points="2034,922 1901,854 1851,987" style="fill:#269496;stroke:#269496;"/><polygon stroke-linejoin="round" stroke-miterlimit="1" stroke-width="1" points="1839,415 1705,102 1629,247" style="fill:#39b5b2;stroke:#39b5b2;"/><polygon stroke-linejoin="round" stroke-miterlimit="1" stroke-width="1" points="1901,854 1849,872 1851,987" style="fill:#269496;stroke:#269496;"/><polygon stroke-linejoin="round" stroke-miterlimit="1" stroke-width="1" points="1968,327 1705,102 1839,415" style="fill:#2c9f9f;stroke:#2c9f9f;"/><polygon stroke-linejoin="round" stroke-miterlimit="1" stroke-width="1" points="1968,327 1832,20 1705,102" style="fill:#29999b;stroke:#29999b;"/><polygon stroke-linejoin="round" stroke-miterlimit="1" stroke-width="1" points="1973,568 1805,692 1884,734" style="fill:#41c3be;stroke:#41c3be;"/><polygon stroke-linejoin="round" stroke-miterlimit="1" stroke-width="1" points="1973,568 1867,510 1805,692" style="fill:#269496;stroke:#269496;"/><polygon stroke-linejoin="round" stroke-miterlimit="1" stroke-width="1" points="1931,3 1895,-101 1832,20" style="fill:#37b1af;stroke:#37b1af;"/><polygon stroke-linejoin="round" stroke-miterlimit="1" stroke-width="1" points="1552,1099 1517,1084 1027,1096" style="fill:#46cac4;stroke:#46cac4;"/><polygon stroke-linejoin="round" stroke-miterlimit="1" stroke-width="1" points="1884,734 1782,829 1849,872" style="fill:#3ab6b3;stroke:#3ab6b3;"/><polygon stroke-linejoin="round" stroke-miterlimit="1" stroke-width="1" points="1895,-101 1817,-101 1832,20" style="fill:#35adab;stroke:#35adab;"/><polygon stroke-linejoin="round" stroke-miterlimit="1" stroke-width="1" points="1901,854 1884,734 1849,872" style="fill:#33aaa9;stroke:#33aaa9;"/><polygon stroke-linejoin="round" stroke-miterlimit="1" stroke-width="1" points="1867,510 1653,581 1805,692" style="fill:#31a7a6;stroke:#31a7a6;"/><polygon stroke-linejoin="round" stroke-miterlimit="1" stroke-width="1" points="1884,734 1805,692 1782,829" style="fill:#269496;stroke:#269496;"/><polygon stroke-linejoin="round" stroke-miterlimit="1" stroke-width="1" points="1851,987 1849,872 1763,979" style="fill:#32a9a8;stroke:#32a9a8;"/><polygon stroke-linejoin="round" stroke-miterlimit="1" stroke-width="1" points="1867,510 1654,517 1653,581" style="fill:#269496;stroke:#269496;"/><polygon stroke-linejoin="round" stroke-miterlimit="1" stroke-width="1" points="1867,510 1839,415 1654,517" style="fill:#37b1ae;stroke:#37b1ae;"/><polygon stroke-linejoin="round" stroke-miterlimit="1" stroke-width="1" points="1832,20 1817,-101 1739,-88" style="fill:#269496;stroke:#269496;"/><polygon stroke-linejoin="round" stroke-miterlimit="1" stroke-width="1" points="1849,872 1784,851 1763,979" style="fill:#269496;stroke:#269496;"/><polygon stroke-linejoin="round" stroke-miterlimit="1" stroke-width="1" points="1849,872 1782,829 1784,851" style="fill:#269496;stroke:#269496;"/><polygon stroke-linejoin="round" stroke-miterlimit="1" stroke-width="1" points="1839,415 1629,247 1654,517" style="fill:#2b9c9d;stroke:#2b9c9d;"/><polygon stroke-linejoin="round" stroke-miterlimit="1" stroke-width="1" points="1832,20 1739,-88 1705,102" style="fill:#31a7a6;stroke:#31a7a6;"/><polygon stroke-linejoin="round" stroke-miterlimit="1" stroke-width="1" points="1763,979 1563,1022 1552,1099" style="fill:#39b5b2;stroke:#39b5b2;"/><polygon stroke-linejoin="round" stroke-miterlimit="1" stroke-width="1" points="1805,692 1653,581 1782,829" style="fill:#30a5a5;stroke:#30a5a5;"/><polygon stroke-linejoin="round" stroke-miterlimit="1" stroke-width="1" points="1739,-88 1596,-3 1705,102" style="fill:#269496;stroke:#269496;"/><polygon stroke-linejoin="round" stroke-miterlimit="1" stroke-width="1" points="1782,829 1653,581 1342,715" style="fill:#2a9b9c;stroke:#2a9b9c;"/><polygon stroke-linejoin="round" stroke-miterlimit="1" stroke-width="1" points="1782,829 1342,715 1563,1022" style="fill:#2ea2a2;stroke:#2ea2a2;"/><polygon stroke-linejoin="round" stroke-miterlimit="1" stroke-width="1" points="1784,851 1782,829 1563,1022" style="fill:#269496;stroke:#269496;"/><polygon stroke-linejoin="round" stroke-miterlimit="1" stroke-width="1" points="1784,851 1563,1022 1763,979" style="fill:#3ab6b3;stroke:#3ab6b3;"/><polygon stroke-linejoin="round" stroke-miterlimit="1" stroke-width="1" points="1739,-88 1536,-11 1596,-3" style="fill:#2c9e9f;stroke:#2c9e9f;"/><polygon stroke-linejoin="round" stroke-miterlimit="1" stroke-width="1" points="1739,-88 1426,-87 1536,-11" style="fill:#2fa4a4;stroke:#2fa4a4;"/><polygon stroke-linejoin="round" stroke-miterlimit="1" stroke-width="1" points="1654,517 1629,247 1511,292" style="fill:#31a7a7;stroke:#31a7a7;"/><polygon stroke-linejoin="round" stroke-miterlimit="1" stroke-width="1" points="1654,517 1511,292 1473,405" style="fill:#34acaa;stroke:#34acaa;"/><polygon stroke-linejoin="round" stroke-miterlimit="1" stroke-width="1" points="1563,1022 1342,715 1317,881" style="fill:#2c9e9f;stroke:#2c9e9f;"/><polygon stroke-linejoin="round" stroke-miterlimit="1" stroke-width="1" points="1705,102 1596,-3 1629,247" style="fill:#289799;stroke:#289799;"/><polygon stroke-linejoin="round" stroke-miterlimit="1" stroke-width="1" points="1517,1084 1423,1028 1027,1096" style="fill:#269496;stroke:#269496;"/><polygon stroke-linejoin="round" stroke-miterlimit="1" stroke-width="1" points="1536,-11 1372,208 1511,292" style="fill:#31a7a7;stroke:#31a7a7;"/><polygon stroke-linejoin="round" stroke-miterlimit="1" stroke-width="1" points="1563,1022 1423,1028 1483,1040" style="fill:#269496;stroke:#269496;"/><polygon stroke-linejoin="round" stroke-miterlimit="1" stroke-width="1" points="1563,1022 1317,881 1423,1028" style="fill:#2ea2a2;stroke:#2ea2a2;"/><polygon stroke-linejoin="round" stroke-miterlimit="1" stroke-width="1" points="1629,247 1596,-3 1536,-11" style="fill:#55e4da;stroke:#55e4da;"/><polygon stroke-linejoin="round" stroke-miterlimit="1" stroke-width="1" points="1629,247 1536,-11 1511,292" style="fill:#3cb9b5;stroke:#3cb9b5;"/><polygon stroke-linejoin="round" stroke-miterlimit="1" stroke-width="1" points="1654,517 1473,405 1653,581" style="fill:#40c0bb;stroke:#40c0bb;"/><polygon stroke-linejoin="round" stroke-miterlimit="1" stroke-width="1" points="1653,581 1473,405 1396,433" style="fill:#38b2b0;stroke:#38b2b0;"/><polygon stroke-linejoin="round" stroke-miterlimit="1" stroke-width="1" points="1653,581 1396,433 1342,715" style="fill:#3ab6b3;stroke:#3ab6b3;"/><polygon stroke-linejoin="round" stroke-miterlimit="1" stroke-width="1" points="1536,-11 1400,11 1372,208" style="fill:#39b5b2;stroke:#39b5b2;"/><polygon stroke-linejoin="round" stroke-miterlimit="1" stroke-width="1" points="1396,433 1285,624 1342,715" style="fill:#3dbab7;stroke:#3dbab7;"/><polygon stroke-linejoin="round" stroke-miterlimit="1" stroke-width="1" points="932,-101 204,-101 578,-35" style="fill:#2a9a9c;stroke:#2a9a9c;"/><polygon stroke-linejoin="round" stroke-miterlimit="1" stroke-width="1" points="1563,1022 1517,1084 1552,1099" style="fill:#269496;stroke:#269496;"/><polygon stroke-linejoin="round" stroke-miterlimit="1" stroke-width="1" points="1563,1022 1483,1040 1517,1084" style="fill:#289799;stroke:#289799;"/><polygon stroke-linejoin="round" stroke-miterlimit="1" stroke-width="1" points="1511,292 1372,208 1418,299" style="fill:#39b4b1;stroke:#39b4b1;"/><polygon stroke-linejoin="round" stroke-miterlimit="1" stroke-width="1" points="1536,-11 1426,-87 1400,11" style="fill:#35aeac;stroke:#35aeac;"/><polygon stroke-linejoin="round" stroke-miterlimit="1" stroke-width="1" points="1511,292 1418,299 1473,405" style="fill:#269496;stroke:#269496;"/><polygon stroke-linejoin="round" stroke-miterlimit="1" stroke-width="1" points="1517,1084 1483,1040 1423,1028" style="fill:#3cbab6;stroke:#3cbab6;"/><polygon stroke-linejoin="round" stroke-miterlimit="1" stroke-width="1" points="1473,405 1418,299 1396,433" style="fill:#33aaa9;stroke:#33aaa9;"/><polygon stroke-linejoin="round" stroke-miterlimit="1" stroke-width="1" points="1423,1028 1228,947 1027,1096" style="fill:#269496;stroke:#269496;"/><polygon stroke-linejoin="round" stroke-miterlimit="1" stroke-width="1" points="326,1099 163,1080 -140,1099" style="fill:#5aece1;stroke:#5aece1;"/><polygon stroke-linejoin="round" stroke-miterlimit="1" stroke-width="1" points="1342,715 1286,848 1317,881" style="fill:#2c9f9f;stroke:#2c9f9f;"/><polygon stroke-linejoin="round" stroke-miterlimit="1" stroke-width="1" points="1396,433 1294,229 1214,269" style="fill:#2ea1a1;stroke:#2ea1a1;"/><polygon stroke-linejoin="round" stroke-miterlimit="1" stroke-width="1" points="1400,11 1275,210 1372,208" style="fill:#3bb7b4;stroke:#3bb7b4;"/><polygon stroke-linejoin="round" stroke-miterlimit="1" stroke-width="1" points="1418,299 1294,229 1396,433" style="fill:#33aaa9;stroke:#33aaa9;"/><polygon stroke-linejoin="round" stroke-miterlimit="1" stroke-width="1" points="1423,1028 1317,881 1228,947" style="fill:#37b0ae;stroke:#37b0ae;"/><polygon stroke-linejoin="round" stroke-miterlimit="1" stroke-width="1" points="1426,-87 1171,-36 1400,11" style="fill:#3ebdb9;stroke:#3ebdb9;"/><polygon stroke-linejoin="round" stroke-miterlimit="1" stroke-width="1" points="1426,-87 1118,-100 1171,-36" style="fill:#3dbbb7;stroke:#3dbbb7;"/><polygon stroke-linejoin="round" stroke-miterlimit="1" stroke-width="1" points="1400,11 1183,46 1275,210" style="fill:#38b2b0;stroke:#38b2b0;"/><polygon stroke-linejoin="round" stroke-miterlimit="1" stroke-width="1" points="1418,299 1372,208 1294,229" style="fill: #47cbc5;stroke:#47cbc5;"/><polygon stroke-linejoin="round" stroke-miterlimit="1" stroke-width="1" points="1396,433 1094,477 1285,624" style="fill:#37b0ae;stroke:#37b0ae;"/><polygon stroke-linejoin="round" stroke-miterlimit="1" stroke-width="1" points="1400,11 1171,-36 1183,46" style="fill:#3cb9b5;stroke:#3cb9b5;"/><polygon stroke-linejoin="round" stroke-miterlimit="1" stroke-width="1" points="1396,433 1214,269 1123,322" style="fill:#3ab7b4;stroke:#3ab7b4;"/><polygon stroke-linejoin="round" stroke-miterlimit="1" stroke-width="1" points="1396,433 1123,322 1094,477" style="fill:#31a6a6;stroke:#31a6a6;"/><polygon stroke-linejoin="round" stroke-miterlimit="1" stroke-width="1" points="1372,208 1275,210 1294,229" style="fill:#3ebcb8;stroke:#3ebcb8;"/><polygon stroke-linejoin="round" stroke-miterlimit="1" stroke-width="1" points="1275,210 1183,46 1239,211" style="fill:#269496;stroke:#269496;"/><polygon stroke-linejoin="round" stroke-miterlimit="1" stroke-width="1" points="1342,715 1285,624 1286,848" style="fill:#3bb7b4;stroke:#3bb7b4;"/><polygon stroke-linejoin="round" stroke-miterlimit="1" stroke-width="1" points="1285,624 1063,864 1217,890" style="fill:#42c4bf;stroke:#42c4bf;"/><polygon stroke-linejoin="round" stroke-miterlimit="1" stroke-width="1" points="1286,848 1285,624 1217,890" style="fill:#269496;stroke:#269496;"/><polygon stroke-linejoin="round" stroke-miterlimit="1" stroke-width="1" points="1317,881 1286,848 1217,890" style="fill:#269496;stroke:#269496;"/><polygon stroke-linejoin="round" stroke-miterlimit="1" stroke-width="1" points="1317,881 1217,890 1228,947" style="fill:#35adac;stroke:#35adac;"/><polygon stroke-linejoin="round" stroke-miterlimit="1" stroke-width="1" points="1228,947 1132,941 1027,1096" style="fill:#3bb8b5;stroke:#3bb8b5;"/><polygon stroke-linejoin="round" stroke-miterlimit="1" stroke-width="1" points="1285,624 1020,550 1063,864" style="fill:#37b2af;stroke:#37b2af;"/><polygon stroke-linejoin="round" stroke-miterlimit="1" stroke-width="1" points="1294,229 1275,210 1239,211" style="fill:#40c0bc;stroke:#40c0bc;"/><polygon stroke-linejoin="round" stroke-miterlimit="1" stroke-width="1" points="1294,229 1239,211 1214,269" style="fill:#50dcd4;stroke:#50dcd4;"/><polygon stroke-linejoin="round" stroke-miterlimit="1" stroke-width="1" points="1239,211 1183,46 1152,208" style="fill:#51ddd5;stroke:#51ddd5;"/><polygon stroke-linejoin="round" stroke-miterlimit="1" stroke-width="1" points="1285,624 1094,477 1020,550" style="fill:#39b4b2;stroke:#39b4b2;"/><polygon stroke-linejoin="round" stroke-miterlimit="1" stroke-width="1" points="1183,46 1098,145 1152,208" style="fill:#2fa3a3;stroke:#2fa3a3;"/><polygon stroke-linejoin="round" stroke-miterlimit="1" stroke-width="1" points="1239,211 1152,208 1214,269" style="fill:#41c1bd;stroke:#41c1bd;"/><polygon stroke-linejoin="round" stroke-miterlimit="1" stroke-width="1" points="1214,269 1142,271 1123,322" style="fill:#56e6dc;stroke:#56e6dc;"/><polygon stroke-linejoin="round" stroke-miterlimit="1" stroke-width="1" points="1228,947 1217,890 1132,941" style="fill:#269496;stroke:#269496;"/><polygon stroke-linejoin="round" stroke-miterlimit="1" stroke-width="1" points="1214,269 1152,208 1142,271" style="fill:#34abaa;stroke:#34abaa;"/><polygon stroke-linejoin="round" stroke-miterlimit="1" stroke-width="1" points="1217,890 1063,864 1132,941" style="fill:#47ccc5;stroke:#47ccc5;"/><polygon stroke-linejoin="round" stroke-miterlimit="1" stroke-width="1" points="1183,46 1171,-36 960,42" style="fill:#3ab6b3;stroke:#3ab6b3;"/><polygon stroke-linejoin="round" stroke-miterlimit="1" stroke-width="1" points="1183,46 960,42 1098,145" style="fill:#44c8c2;stroke:#44c8c2;"/><polygon stroke-linejoin="round" stroke-miterlimit="1" stroke-width="1" points="1063,864 1020,550 897,814" style="fill:#2da1a1;stroke:#2da1a1;"/><polygon stroke-linejoin="round" stroke-miterlimit="1" stroke-width="1" points="1171,-36 1118,-100 1030,-101" style="fill:#269496;stroke:#269496;"/><polygon stroke-linejoin="round" stroke-miterlimit="1" stroke-width="1" points="1171,-36 1030,-101 960,42" style="fill:#45c9c3;stroke:#45c9c3;"/><polygon stroke-linejoin="round" stroke-miterlimit="1" stroke-width="1" points="932,-101 578,-35 907,-87" style="fill:#269496;stroke:#269496;"/><polygon stroke-linejoin="round" stroke-miterlimit="1" stroke-width="1" points="1020,550 863,648 897,814" style="fill:#42c4bf;stroke:#42c4bf;"/><polygon stroke-linejoin="round" stroke-miterlimit="1" stroke-width="1" points="1152,208 1098,145 1017,237" style="fill:#37b1af;stroke:#37b1af;"/><polygon stroke-linejoin="round" stroke-miterlimit="1" stroke-width="1" points="1152,208 1043,277 1142,271" style="fill:#30a6a5;stroke:#30a6a5;"/><polygon stroke-linejoin="round" stroke-miterlimit="1" stroke-width="1" points="1152,208 1017,237 1043,277" style="fill:#49cfc8;stroke:#49cfc8;"/><polygon stroke-linejoin="round" stroke-miterlimit="1" stroke-width="1" points="1123,322 1043,277 1094,477" style="fill:#4cd5ce;stroke:#4cd5ce;"/><polygon stroke-linejoin="round" stroke-miterlimit="1" stroke-width="1" points="1132,941 931,1011 1027,1096" style="fill:#33aaa9;stroke:#33aaa9;"/><polygon stroke-linejoin="round" stroke-miterlimit="1" stroke-width="1" points="1142,271 1043,277 1123,322" style="fill:#3bb8b4;stroke:#3bb8b4;"/><polygon stroke-linejoin="round" stroke-miterlimit="1" stroke-width="1" points="1094,477 1043,277 908,376" style="fill:#41c2bd;stroke:#41c2bd;"/><polygon stroke-linejoin="round" stroke-miterlimit="1" stroke-width="1" points="1132,941 1063,864 931,1011" style="fill:#28989a;stroke:#28989a;"/><polygon stroke-linejoin="round" stroke-miterlimit="1" stroke-width="1" points="1030,-101 1001,-101 960,42" style="fill:#48cec8;stroke:#48cec8;"/><polygon stroke-linejoin="round" stroke-miterlimit="1" stroke-width="1" points="1094,477 908,376 1020,550" style="fill:#41c2bd;stroke:#41c2bd;"/><polygon stroke-linejoin="round" stroke-miterlimit="1" stroke-width="1" points="1098,145 960,42 1017,237" style="fill: #43c6c1;stroke:#43c6c1;"/><polygon stroke-linejoin="round" stroke-miterlimit="1" stroke-width="1" points="1001,-101 997,-101 960,42" style="fill:#5cf0e4;stroke:#5cf0e4;"/><polygon stroke-linejoin="round" stroke-miterlimit="1" stroke-width="1" points="1020,550 882,575 863,648" style="fill:#269496;stroke:#269496;"/><polygon stroke-linejoin="round" stroke-miterlimit="1" stroke-width="1" points="1027,1096 931,1011 1001,1099" style="fill:#269496;stroke:#269496;"/><polygon stroke-linejoin="round" stroke-miterlimit="1" stroke-width="1" points="1063,864 897,814 910,845" style="fill:#5befe3;stroke:#5befe3;"/><polygon stroke-linejoin="round" stroke-miterlimit="1" stroke-width="1" points="1063,864 910,845 931,1011" style="fill:#3cbab6;stroke:#3cbab6;"/><polygon stroke-linejoin="round" stroke-miterlimit="1" stroke-width="1" points="1017,237 960,42 874,256" style="fill:#4ad2cb;stroke:#4ad2cb;"/><polygon stroke-linejoin="round" stroke-miterlimit="1" stroke-width="1" points="1020,550 908,376 882,575" style="fill:#38b2af;stroke:#38b2af;"/><polygon stroke-linejoin="round" stroke-miterlimit="1" stroke-width="1" points="1043,277 1017,237 908,376" style="fill:#269496;stroke:#269496;"/><polygon stroke-linejoin="round" stroke-miterlimit="1" stroke-width="1" points="960,42 932,-101 907,-87" style="fill:#269496;stroke:#269496;"/><polygon stroke-linejoin="round" stroke-miterlimit="1" stroke-width="1" points="997,-101 932,-101 960,42" style="fill:#48cec8;stroke:#48cec8;"/><polygon stroke-linejoin="round" stroke-miterlimit="1" stroke-width="1" points="1017,237 874,256 908,376" style="fill:#53e0d7;stroke:#53e0d7;"/><polygon stroke-linejoin="round" stroke-miterlimit="1" stroke-width="1" points="1001,1099 931,1011 930,1099" style="fill:#33a9a8;stroke:#33a9a8;"/><polygon stroke-linejoin="round" stroke-miterlimit="1" stroke-width="1" points="908,376 843,551 882,575" style="fill:#269496;stroke:#269496;"/><polygon stroke-linejoin="round" stroke-miterlimit="1" stroke-width="1" points="960,42 762,243 874,256" style="fill: #5aece1;stroke:#5aece1;"/><polygon stroke-linejoin="round" stroke-miterlimit="1" stroke-width="1" points="960,42 671,45 762,243" style="fill: #47cbc5;stroke: #47cbc5;"/><polygon stroke-linejoin="round" stroke-miterlimit="1" stroke-width="1" points="960,42 907,-87 671,45" style="fill:#47cdc7;stroke:#47cdc7;"/><polygon stroke-linejoin="round" stroke-miterlimit="1" stroke-width="1" points="931,1011 710,1066 930,1099" style="fill:#2fa3a3;stroke:#2fa3a3;"/><polygon stroke-linejoin="round" stroke-miterlimit="1" stroke-width="1" points="931,1011 910,845 710,1066" style="fill:#36afad;stroke:#36afad;"/><polygon stroke-linejoin="round" stroke-miterlimit="1" stroke-width="1" points="930,1099 710,1066 703,1097" style="fill:#2c9d9e;stroke:#2c9d9e;"/><polygon stroke-linejoin="round" stroke-miterlimit="1" stroke-width="1" points="897,814 863,648 651,784" style="fill:#41c2bd;stroke:#41c2bd;"/><polygon stroke-linejoin="round" stroke-miterlimit="1" stroke-width="1" points="907,-87 578,-35 671,45" style="fill:#47cbc5;stroke:#47cbc5;"/><polygon stroke-linejoin="round" stroke-miterlimit="1" stroke-width="1" points="908,376 874,256 735,316" style="fill:#53e1d7;stroke:#53e1d7;"/><polygon stroke-linejoin="round" stroke-miterlimit="1" stroke-width="1" points="908,376 735,316 843,551" style="fill:#48cdc7;stroke:#48cdc7;"/><polygon stroke-linejoin="round" stroke-miterlimit="1" stroke-width="1" points="910,845 897,814 651,784" style="fill:#4fdad1;stroke:#4fdad1;"/><polygon stroke-linejoin="round" stroke-miterlimit="1" stroke-width="1" points="910,845 651,784 710,1066" style="fill:#34adab;stroke:#34adab;"/><polygon stroke-linejoin="round" stroke-miterlimit="1" stroke-width="1" points="843,551 735,316 803,573" style="fill:#49cfc8;stroke:#49cfc8;"/><polygon stroke-linejoin="round" stroke-miterlimit="1" stroke-width="1" points="874,256 762,243 735,316" style="fill: #269496;stroke: #269496;"/><polygon stroke-linejoin="round" stroke-miterlimit="1" stroke-width="1" points="882,575 803,573 863,648" style="fill:#51ded5;stroke:#51ded5;"/><polygon stroke-linejoin="round" stroke-miterlimit="1" stroke-width="1" points="882,575 843,551 803,573" style="fill:#64fef0;stroke:#64fef0;"/><polygon stroke-linejoin="round" stroke-miterlimit="1" stroke-width="1" points="863,648 803,573 651,784" style="fill:#3ab6b3;stroke:#3ab6b3;"/><polygon stroke-linejoin="round" stroke-miterlimit="1" stroke-width="1" points="671,45 578,-35 630,26" style="fill:#269496;stroke:#269496;"/><polygon stroke-linejoin="round" stroke-miterlimit="1" stroke-width="1" points="710,1066 651,784 556,920" style="fill:#38b3b1;stroke:#38b3b1;"/><polygon stroke-linejoin="round" stroke-miterlimit="1" stroke-width="1" points="762,243 671,45 625,158" style="fill: #5aece1;stroke: #5aece1;"/><polygon stroke-linejoin="round" stroke-miterlimit="1" stroke-width="1" points="803,573 735,316 578,440" style="fill:#4dd7cf;stroke:#4dd7cf;"/><polygon stroke-linejoin="round" stroke-miterlimit="1" stroke-width="1" points="803,573 578,440 577,445" style="fill:#3fbfbb;stroke:#3fbfbb;"/><polygon stroke-linejoin="round" stroke-miterlimit="1" stroke-width="1" points="803,573 563,503 651,784" style="fill:#43c5c0;stroke:#43c5c0;"/><polygon stroke-linejoin="round" stroke-miterlimit="1" stroke-width="1" points="803,573 577,445 563,503" style="fill:#3ebcb8;stroke:#3ebcb8;"/><polygon stroke-linejoin="round" stroke-miterlimit="1" stroke-width="1" points="735,316 643,294 569,390" style="fill:#6afff8;stroke:#6afff8;"/><polygon stroke-linejoin="round" stroke-miterlimit="1" stroke-width="1" points="735,316 569,390 578,440" style="fill:#53e1d8;stroke:#53e1d8;"/><polygon stroke-linejoin="round" stroke-miterlimit="1" stroke-width="1" points="762,243 643,294 735,316" style="fill: #43c6c1;stroke: #43c6c1;"/><polygon stroke-linejoin="round" stroke-miterlimit="1" stroke-width="1" points="762,243 625,158 643,294" style="fill: #43c6c1;stroke: #43c6c1;"/><polygon stroke-linejoin="round" stroke-miterlimit="1" stroke-width="1" points="651,784 563,503 454,657" style="fill:#3ab6b3;stroke:#3ab6b3;"/><polygon stroke-linejoin="round" stroke-miterlimit="1" stroke-width="1" points="643,294 625,158 597,185" style="fill: #269496;stroke: #269496;"/><polygon stroke-linejoin="round" stroke-miterlimit="1" stroke-width="1" points="671,45 609,72 625,158" style="fill: #34abaa;stroke: #34abaa;"/><polygon stroke-linejoin="round" stroke-miterlimit="1" stroke-width="1" points="710,1066 556,920 703,1097" style="fill:#35aeac;stroke:#35aeac;"/><polygon stroke-linejoin="round" stroke-miterlimit="1" stroke-width="1" points="703,1097 556,920 426,1099" style="fill:#3dbbb7;stroke:#3dbbb7;"/><polygon stroke-linejoin="round" stroke-miterlimit="1" stroke-width="1" points="651,784 507,847 556,920" style="fill:#3ebdb9;stroke:#3ebdb9;"/><polygon stroke-linejoin="round" stroke-miterlimit="1" stroke-width="1" points="671,45 630,26 609,72" style="fill:#57e7dc;stroke:#57e7dc;"/><polygon stroke-linejoin="round" stroke-miterlimit="1" stroke-width="1" points="625,158 607,168 597,185" style="fill:#269496;stroke:#269496;"/><polygon stroke-linejoin="round" stroke-miterlimit="1" stroke-width="1" points="643,294 597,185 525,284" style="fill: #5aece1;stroke: #5aece1;"/><polygon stroke-linejoin="round" stroke-miterlimit="1" stroke-width="1" points="651,784 454,657 507,847" style="fill:#37b1ae;stroke:#37b1ae;"/><polygon stroke-linejoin="round" stroke-miterlimit="1" stroke-width="1" points="597,185 526,211 525,284" style="fill:#5aede2;stroke:#5aede2;"/><polygon stroke-linejoin="round" stroke-miterlimit="1" stroke-width="1" points="625,158 609,72 607,168" style="fill: #55e4da;stroke: #55e4da;"/><polygon stroke-linejoin="round" stroke-miterlimit="1" stroke-width="1" points="643,294 525,284 569,390" style="fill: #4ed8d0;stroke: #4ed8d0;"/><polygon stroke-linejoin="round" stroke-miterlimit="1" stroke-width="1" points="630,26 578,-35 609,72" style="fill:#55e4da;stroke:#55e4da;"/><polygon stroke-linejoin="round" stroke-miterlimit="1" stroke-width="1" points="607,168 526,211 597,185" style="fill:#2c9f9f;stroke:#2c9f9f;"/><polygon stroke-linejoin="round" stroke-miterlimit="1" stroke-width="1" points="609,72 578,-35 429,117" style="fill:#42c4bf;stroke:#42c4bf;"/><polygon stroke-linejoin="round" stroke-miterlimit="1" stroke-width="1" points="609,72 526,211 607,168" style="fill: #47cbc5;stroke: #47cbc5;"/><polygon stroke-linejoin="round" stroke-miterlimit="1" stroke-width="1" points="609,72 429,117 526,211" style="fill:#53e0d7;stroke:#53e0d7;"/><polygon stroke-linejoin="round" stroke-miterlimit="1" stroke-width="1" points="507,847 454,657 394,739" style="fill:#3fbfbb;stroke:#3fbfbb;"/><polygon stroke-linejoin="round" stroke-miterlimit="1" stroke-width="1" points="556,920 402,899 426,1099" style="fill:#2c9e9f;stroke:#2c9e9f;"/><polygon stroke-linejoin="round" stroke-miterlimit="1" stroke-width="1" points="563,503 411,508 454,657" style="fill:#3ebdb9;stroke:#3ebdb9;"/><polygon stroke-linejoin="round" stroke-miterlimit="1" stroke-width="1" points="577,445 569,390 432,373" style="fill:#269496;stroke:#269496;"/><polygon stroke-linejoin="round" stroke-miterlimit="1" stroke-width="1" points="578,-35 204,-101 359,102" style="fill:#3bb8b5;stroke:#3bb8b5;"/><polygon stroke-linejoin="round" stroke-miterlimit="1" stroke-width="1" points="578,440 569,390 577,445" style="fill:#269496;stroke:#269496;"/><polygon stroke-linejoin="round" stroke-miterlimit="1" stroke-width="1" points="569,390 525,284 432,373" style="fill:#5aece1;stroke:#5aece1;"/><polygon stroke-linejoin="round" stroke-miterlimit="1" stroke-width="1" points="578,-35 359,102 429,117" style="fill: #269496;stroke:#269496;"/><polygon stroke-linejoin="round" stroke-miterlimit="1" stroke-width="1" points="577,445 411,508 563,503" style="fill:#52ded5;stroke:#52ded5;"/><polygon stroke-linejoin="round" stroke-miterlimit="1" stroke-width="1" points="577,445 432,373 411,508" style="fill:#4dd6ce;stroke:#4dd6ce;"/><polygon stroke-linejoin="round" stroke-miterlimit="1" stroke-width="1" points="163,1080 0,1067 -140,1099" style="fill:#40c0bc;stroke:#40c0bc;"/><polygon stroke-linejoin="round" stroke-miterlimit="1" stroke-width="1" points="556,920 507,847 402,899" style="fill:#45c8c2;stroke:#45c8c2;"/><polygon stroke-linejoin="round" stroke-miterlimit="1" stroke-width="1" points="525,284 476,232 432,373" style="fill:#4ed8d0;stroke: #4ed8d0;"/><polygon stroke-linejoin="round" stroke-miterlimit="1" stroke-width="1" points="526,211 476,232 525,284" style="fill: #55e4da;stroke:#55e4da;"/><polygon stroke-linejoin="round" stroke-miterlimit="1" stroke-width="1" points="526,211 429,117 476,232" style="fill:#4dd5ce;stroke:#4dd5ce;"/><polygon stroke-linejoin="round" stroke-miterlimit="1" stroke-width="1" points="476,232 381,354 432,373" style="fill:#53e0d7;stroke:#53e0d7;"/><polygon stroke-linejoin="round" stroke-miterlimit="1" stroke-width="1" points="507,847 394,739 402,899" style="fill:#38b3b1;stroke:#38b3b1;"/><polygon stroke-linejoin="round" stroke-miterlimit="1" stroke-width="1" points="426,1099 402,899 376,1099" style="fill:#2a9a9b;stroke:#2a9a9b;"/><polygon stroke-linejoin="round" stroke-miterlimit="1" stroke-width="1" points="476,232 429,117 302,220" style="fill:#47cdc7;stroke:#47cdc7;"/><polygon stroke-linejoin="round" stroke-miterlimit="1" stroke-width="1" points="476,232 302,220 381,354" style="fill:#51ddd5;stroke:#51ddd5;"/><polygon stroke-linejoin="round" stroke-miterlimit="1" stroke-width="1" points="402,899 326,1099 376,1099" style="fill:#3bb7b4;stroke:#3bb7b4;"/><polygon stroke-linejoin="round" stroke-miterlimit="1" stroke-width="1" points="429,117 359,102 302,220" style="fill:#51ddd4;stroke:#51ddd4;"/><polygon stroke-linejoin="round" stroke-miterlimit="1" stroke-width="1" points="432,373 381,354 411,508" style="fill:#3cb9b5;stroke:#3cb9b5;"/><polygon stroke-linejoin="round" stroke-miterlimit="1" stroke-width="1" points="454,657 411,508 254,630" style="fill:#31a7a6;stroke:#31a7a6;"/><polygon stroke-linejoin="round" stroke-miterlimit="1" stroke-width="1" points="454,657 254,630 394,739" style="fill:#37b2af;stroke:#37b2af;"/><polygon stroke-linejoin="round" stroke-miterlimit="1" stroke-width="1" points="402,899 235,923 326,1099" style="fill:#2c9f9f;stroke:#2c9f9f;"/><polygon stroke-linejoin="round" stroke-miterlimit="1" stroke-width="1" points="411,508 381,354 261,459" style="fill:#41c2bd;stroke:#41c2bd;"/><polygon stroke-linejoin="round" stroke-miterlimit="1" stroke-width="1" points="402,899 394,739 235,923" style="fill:#3ab6b3;stroke:#3ab6b3;"/><polygon stroke-linejoin="round" stroke-miterlimit="1" stroke-width="1" points="411,508 261,459 254,630" style="fill:#39b3b1;stroke:#39b3b1;"/><polygon stroke-linejoin="round" stroke-miterlimit="1" stroke-width="1" points="394,739 136,825 235,923" style="fill:#39b5b2;stroke:#39b5b2;"/><polygon stroke-linejoin="round" stroke-miterlimit="1" stroke-width="1" points="394,739 254,630 136,825" style="fill:#31a6a6;stroke:#31a6a6;"/><polygon stroke-linejoin="round" stroke-miterlimit="1" stroke-width="1" points="381,354 302,220 261,459" style="fill:#44c6c1;stroke:#44c6c1;"/><polygon stroke-linejoin="round" stroke-miterlimit="1" stroke-width="1" points="254,630 134,700 136,825" style="fill:#2fa3a2;stroke:#2fa3a2;"/><polygon stroke-linejoin="round" stroke-miterlimit="1" stroke-width="1" points="359,102 204,-101 124,-33" style="fill:#3fbeba;stroke:#3fbeba;"/><polygon stroke-linejoin="round" stroke-miterlimit="1" stroke-width="1" points="359,102 124,-33 302,220" style="fill:#3ebdb9;stroke:#3ebdb9;"/><polygon stroke-linejoin="round" stroke-miterlimit="1" stroke-width="1" points="302,220 124,-33 12,108" style="fill:#3ab5b2;stroke:#3ab5b2;"/><polygon stroke-linejoin="round" stroke-miterlimit="1" stroke-width="1" points="302,220 63,386 261,459" style="fill: #34abaa;stroke:#34abaa;"/><polygon stroke-linejoin="round" stroke-miterlimit="1" stroke-width="1" points="326,1099 235,923 163,1080" style="fill:#2a9a9c;stroke:#2a9a9c;"/><polygon stroke-linejoin="round" stroke-miterlimit="1" stroke-width="1" points="235,923 136,825 135,841" style="fill:#269496;stroke:#269496;"/><polygon stroke-linejoin="round" stroke-miterlimit="1" stroke-width="1" points="302,220 -23,181 63,386" style="fill:#3bb8b5;stroke:#3bb8b5;"/><polygon stroke-linejoin="round" stroke-miterlimit="1" stroke-width="1" points="302,220 12,108 -23,181" style="fill:#3bb8b5;stroke:#3bb8b5;"/><polygon stroke-linejoin="round" stroke-miterlimit="1" stroke-width="1" points="254,630 38,655 134,700" style="fill:#3bb7b4;stroke:#3bb7b4;"/><polygon stroke-linejoin="round" stroke-miterlimit="1" stroke-width="1" points="261,459 38,655 254,630" style="fill:#31a8a7;stroke:#31a8a7;"/><polygon stroke-linejoin="round" stroke-miterlimit="1" stroke-width="1" points="261,459 63,386 38,655" style="fill:#33abaa;stroke:#33abaa;"/><polygon stroke-linejoin="round" stroke-miterlimit="1" stroke-width="1" points="136,825 134,700 104,785" style="fill:#32a8a7;stroke:#32a8a7;"/><polygon stroke-linejoin="round" stroke-miterlimit="1" stroke-width="1" points="235,923 51,880 163,1080" style="fill:#2fa4a4;stroke:#2fa4a4;"/><polygon stroke-linejoin="round" stroke-miterlimit="1" stroke-width="1" points="235,923 135,841 51,880" style="fill:#269496;stroke:#269496;"/><polygon stroke-linejoin="round" stroke-miterlimit="1" stroke-width="1" points="163,1080 51,880 0,1067" style="fill:#269496;stroke:#269496;"/><polygon stroke-linejoin="round" stroke-miterlimit="1" stroke-width="1" points="204,-101 -86,-101 124,-33" style="fill:#3cbab7;stroke:#3cbab7;"/><polygon stroke-linejoin="round" stroke-miterlimit="1" stroke-width="1" points="63,386 -91,577 38,655" style="fill:#2c9e9f;stroke:#2c9e9f;"/><polygon stroke-linejoin="round" stroke-miterlimit="1" stroke-width="1" points="136,825 104,785 114,812" style="fill:#6fffff;stroke:#6fffff;"/><polygon stroke-linejoin="round" stroke-miterlimit="1" stroke-width="1" points="63,386 -37,398 -91,577" style="fill:#269496;stroke:#269496;"/><polygon stroke-linejoin="round" stroke-miterlimit="1" stroke-width="1" points="134,700 78,785 104,785" style="fill:#269496;stroke:#269496;"/><polygon stroke-linejoin="round" stroke-miterlimit="1" stroke-width="1" points="134,700 38,655 78,785" style="fill:#42c3be;stroke:#42c3be;"/><polygon stroke-linejoin="round" stroke-miterlimit="1" stroke-width="1" points="135,841 114,812 51,880" style="fill:#33abaa;stroke:#33abaa;"/><polygon stroke-linejoin="round" stroke-miterlimit="1" stroke-width="1" points="136,825 114,812 135,841" style="fill:#269496;stroke:#269496;"/><polygon stroke-linejoin="round" stroke-miterlimit="1" stroke-width="1" points="114,812 67,805 51,880" style="fill:#269496;stroke:#269496;"/><polygon stroke-linejoin="round" stroke-miterlimit="1" stroke-width="1" points="124,-33 -102,-11 12,108" style="fill:#30a5a5;stroke:#30a5a5;"/><polygon stroke-linejoin="round" stroke-miterlimit="1" stroke-width="1" points="124,-33 -86,-101 -102,-11" style="fill:#3cb9b5;stroke:#3cb9b5;"/><polygon stroke-linejoin="round" stroke-miterlimit="1" stroke-width="1" points="104,785 78,785 67,805" style="fill:#4cd5cd;stroke:#4cd5cd;"/><polygon stroke-linejoin="round" stroke-miterlimit="1" stroke-width="1" points="114,812 104,785 67,805" style="fill:#55e4da;stroke:#55e4da;"/><polygon stroke-linejoin="round" stroke-miterlimit="1" stroke-width="1" points="63,386 -23,181 -37,398" style="fill:#289798;stroke:#289798;"/><polygon stroke-linejoin="round" stroke-miterlimit="1" stroke-width="1" points="51,880 -131,881 0,1067" style="fill:#31a6a6;stroke:#31a6a6;"/><polygon stroke-linejoin="round" stroke-miterlimit="1" stroke-width="1" points="78,785 -45,748 67,805" style="fill:#269496;stroke:#269496;"/><polygon stroke-linejoin="round" stroke-miterlimit="1" stroke-width="1" points="78,785 38,655 -45,748" style="fill:#269496;stroke:#269496;"/><polygon stroke-linejoin="round" stroke-miterlimit="1" stroke-width="1" points="67,805 -45,748 51,880" style="fill:#269496;stroke:#269496;"/><polygon stroke-linejoin="round" stroke-miterlimit="1" stroke-width="1" points="51,880 -45,748 -131,881" style="fill:#2fa4a4;stroke:#2fa4a4;"/><polygon stroke-linejoin="round" stroke-miterlimit="1" stroke-width="1" points="-23,181 -199,275 -37,398" style="fill:#31a6a5;stroke:#31a6a5;"/><polygon stroke-linejoin="round" stroke-miterlimit="1" stroke-width="1" points="38,655 -91,577 -45,748" style="fill:#42c3be;stroke:#42c3be;"/><polygon stroke-linejoin="round" stroke-miterlimit="1" stroke-width="1" points="0,1067 -131,881 -199,1018" style="fill:#3dbbb7;stroke:#3dbbb7;"/><polygon stroke-linejoin="round" stroke-miterlimit="1" stroke-width="1" points="0,1067 -199,1018 -140,1099" style="fill:#2c9e9e;stroke:#2c9e9e;"/><polygon stroke-linejoin="round" stroke-miterlimit="1" stroke-width="1" points="12,108 -144,57 -23,181" style="fill:#3bb8b4;stroke:#3bb8b4;"/><polygon stroke-linejoin="round" stroke-miterlimit="1" stroke-width="1" points="12,108 -102,-11 -144,57" style="fill:#32a9a8;stroke:#32a9a8;"/><polygon stroke-linejoin="round" stroke-miterlimit="1" stroke-width="1" points="-23,181 -199,233 -199,275" style="fill:#35aeac;stroke:#35aeac;"/><polygon stroke-linejoin="round" stroke-miterlimit="1" stroke-width="1" points="-45,748 -91,577 -199,694" style="fill:#36afad;stroke:#36afad;"/><polygon stroke-linejoin="round" stroke-miterlimit="1" stroke-width="1" points="-37,398 -199,499 -91,577" style="fill:#36afad;stroke:#36afad;"/><polygon stroke-linejoin="round" stroke-miterlimit="1" stroke-width="1" points="-23,181 -144,57 -199,233" style="fill:#31a7a6;stroke:#31a7a6;"/><polygon stroke-linejoin="round" stroke-miterlimit="1" stroke-width="1" points="-37,398 -199,275 -199,499" style="fill:#37b0ae;stroke:#37b0ae;"/><polygon stroke-linejoin="round" stroke-miterlimit="1" stroke-width="1" points="-45,748 -199,694 -131,881" style="fill:#36afad;stroke:#36afad;"/><polygon stroke-linejoin="round" stroke-miterlimit="1" stroke-width="1" points="-176,574 -199,499 -199,546" style="fill:#269496;stroke:#269496;"/><polygon stroke-linejoin="round" stroke-miterlimit="1" stroke-width="1" points="-144,57 -199,70 -199,233" style="fill:#49cfc9;stroke:#49cfc9;"/><polygon stroke-linejoin="round" stroke-miterlimit="1" stroke-width="1" points="-131,881 -199,694 -199,882" style="fill:#269496;stroke:#269496;"/><polygon stroke-linejoin="round" stroke-miterlimit="1" stroke-width="1" points="-91,577 -199,499 -176,574" style="fill:#2b9c9d;stroke:#2b9c9d;"/><polygon stroke-linejoin="round" stroke-miterlimit="1" stroke-width="1" points="-91,577 -176,574 -199,694" style="fill:#41c1bd;stroke:#41c1bd;"/><polygon stroke-linejoin="round" stroke-miterlimit="1" stroke-width="1" points="-86,-101 -199,-101 -102,-11" style="fill:#279698;stroke:#279698;"/><polygon stroke-linejoin="round" stroke-miterlimit="1" stroke-width="1" points="-131,881 -199,882 -199,1018" style="fill:#36b0ae;stroke:#36b0ae;"/><polygon stroke-linejoin="round" stroke-miterlimit="1" stroke-width="1" points="-102,-11 -199,-101 -144,57" style="fill:#4ad2cb;stroke:#4ad2cb;"/><polygon stroke-linejoin="round" stroke-miterlimit="1" stroke-width="1" points="-144,57 -199,-101 -199,70" style="fill:#34acaa;stroke:#34acaa;"/><polygon stroke-linejoin="round" stroke-miterlimit="1" stroke-width="1" points="-140,1099 -199,1018 -199,1099" style="fill:#42c4bf;stroke:#42c4bf;"/><polygon stroke-linejoin="round" stroke-miterlimit="1" stroke-width="1" points="-176,574 -199,546 -199,694" style="fill:#46cac4;stroke:#46cac4;"/></svg>