
      <svg xmlns="http://www.w3.org/2000/svg" version="1.1" width="1366" height="657" style="display: block;"><polygon stroke-linejoin="round" stroke-miterlimit="1" stroke-width="1" points="301,-67.5 -120,-67.5 21,-60.5" style="fill:#121212;stroke:#121212;"></polygon><polygon stroke-linejoin="round" stroke-miterlimit="1" stroke-width="1" points="1617,699.5 1168,681.5 1070,688.5" style="fill:#121212;stroke:#121212;"></polygon><polygon stroke-linejoin="round" stroke-miterlimit="1" stroke-width="1" points="1617,699.5 1070,688.5 775,721.5" style="fill:#333333;stroke:#333333;"></polygon><polygon stroke-linejoin="round" stroke-miterlimit="1" stroke-width="1" points="1617,699.5 1389,667.5 1168,681.5" style="fill:#323232;stroke:#323232;"></polygon><polygon stroke-linejoin="round" stroke-miterlimit="1" stroke-width="1" points="1843,-25.5 1464,31.5 1736,60.5" style="fill:#2f2f2f;stroke:#2f2f2f;"></polygon><polygon stroke-linejoin="round" stroke-miterlimit="1" stroke-width="1" points="1843,-25.5 1366,-67.5 1464,31.5" style="fill:#343434;stroke:#343434;"></polygon><polygon stroke-linejoin="round" stroke-miterlimit="1" stroke-width="1" points="1844,278.5 1736,60.5 1773,282.5" style="fill:#323232;stroke:#323232;"></polygon><polygon stroke-linejoin="round" stroke-miterlimit="1" stroke-width="1" points="1879,688.5 1777,548.5 1617,699.5" style="fill:#2f2f2f;stroke:#2f2f2f;"></polygon><polygon stroke-linejoin="round" stroke-miterlimit="1" stroke-width="1" points="1879,495.5 1748,413.5 1777,548.5" style="fill:#2a2a2a;stroke:#2a2a2a;"></polygon><polygon stroke-linejoin="round" stroke-miterlimit="1" stroke-width="1" points="1879,495.5 1777,548.5 1879,688.5" style="fill:#2b2b2b;stroke:#2b2b2b;"></polygon><polygon stroke-linejoin="round" stroke-miterlimit="1" stroke-width="1" points="1879,-67.5 1366,-67.5 1843,-25.5" style="fill:#212121;stroke:#212121;"></polygon><polygon stroke-linejoin="round" stroke-miterlimit="1" stroke-width="1" points="1879,327.5 1791,386.5 1879,430.5" style="fill:#2d2d2d;stroke:#2d2d2d;"></polygon><polygon stroke-linejoin="round" stroke-miterlimit="1" stroke-width="1" points="1879,327.5 1844,278.5 1791,386.5" style="fill:#1f1f1f;stroke:#1f1f1f;"></polygon><polygon stroke-linejoin="round" stroke-miterlimit="1" stroke-width="1" points="1879,721.5 1617,699.5 775,721.5" style="fill:#1c1c1c;stroke:#1c1c1c;"></polygon><polygon stroke-linejoin="round" stroke-miterlimit="1" stroke-width="1" points="1879,721.5 1879,688.5 1617,699.5" style="fill:#2b2b2b;stroke:#2b2b2b;"></polygon><polygon stroke-linejoin="round" stroke-miterlimit="1" stroke-width="1" points="1879,318.5 1844,278.5 1879,327.5" style="fill:#121212;stroke:#121212;"></polygon><polygon stroke-linejoin="round" stroke-miterlimit="1" stroke-width="1" points="1879,314.5 1844,278.5 1879,318.5" style="fill:#575757;stroke:#575757;"></polygon><polygon stroke-linejoin="round" stroke-miterlimit="1" stroke-width="1" points="1879,13.5 1736,60.5 1844,278.5" style="fill:#2c2c2c;stroke:#2c2c2c;"></polygon><polygon stroke-linejoin="round" stroke-miterlimit="1" stroke-width="1" points="1879,13.5 1843,-25.5 1736,60.5" style="fill:#292929;stroke:#292929;"></polygon><polygon stroke-linejoin="round" stroke-miterlimit="1" stroke-width="1" points="1879,13.5 1879,-67.5 1843,-25.5" style="fill:#363636;stroke:#363636;"></polygon><polygon stroke-linejoin="round" stroke-miterlimit="1" stroke-width="1" points="1879,13.5 1844,278.5 1879,314.5" style="fill:#2a2a2a;stroke:#2a2a2a;"></polygon><polygon stroke-linejoin="round" stroke-miterlimit="1" stroke-width="1" points="1879,448.5 1879,430.5 1791,386.5" style="fill:#272727;stroke:#272727;"></polygon><polygon stroke-linejoin="round" stroke-miterlimit="1" stroke-width="1" points="1879,448.5 1791,386.5 1748,413.5" style="fill:#2b2b2b;stroke:#2b2b2b;"></polygon><polygon stroke-linejoin="round" stroke-miterlimit="1" stroke-width="1" points="1879,448.5 1748,413.5 1879,495.5" style="fill:#242424;stroke:#242424;"></polygon><polygon stroke-linejoin="round" stroke-miterlimit="1" stroke-width="1" points="1844,278.5 1773,282.5 1791,386.5" style="fill:#2f2f2f;stroke:#2f2f2f;"></polygon><polygon stroke-linejoin="round" stroke-miterlimit="1" stroke-width="1" points="1617,699.5 1432,661.5 1389,667.5" style="fill:#2a2a2a;stroke:#2a2a2a;"></polygon><polygon stroke-linejoin="round" stroke-miterlimit="1" stroke-width="1" points="1773,282.5 1736,60.5 1414,196.5" style="fill:#373737;stroke:#373737;"></polygon><polygon stroke-linejoin="round" stroke-miterlimit="1" stroke-width="1" points="1791,386.5 1773,282.5 1748,413.5" style="fill:#2d2d2d;stroke:#2d2d2d;"></polygon><polygon stroke-linejoin="round" stroke-miterlimit="1" stroke-width="1" points="1773,282.5 1414,196.5 1595,391.5" style="fill:#434343;stroke:#434343;"></polygon><polygon stroke-linejoin="round" stroke-miterlimit="1" stroke-width="1" points="1773,282.5 1595,391.5 1748,413.5" style="fill:#363636;stroke:#363636;"></polygon><polygon stroke-linejoin="round" stroke-miterlimit="1" stroke-width="1" points="1777,548.5 1532,581.5 1617,699.5" style="fill:#2d2d2d;stroke:#2d2d2d;"></polygon><polygon stroke-linejoin="round" stroke-miterlimit="1" stroke-width="1" points="1777,548.5 1748,413.5 1595,391.5" style="fill:#343434;stroke:#343434;"></polygon><polygon stroke-linejoin="round" stroke-miterlimit="1" stroke-width="1" points="1777,548.5 1595,391.5 1532,581.5" style="fill:#333333;stroke:#333333;"></polygon><polygon stroke-linejoin="round" stroke-miterlimit="1" stroke-width="1" points="1736,60.5 1464,31.5 1414,196.5" style="fill:#3e3e3e;stroke:#3e3e3e;"></polygon><polygon stroke-linejoin="round" stroke-miterlimit="1" stroke-width="1" points="1617,699.5 1532,581.5 1432,661.5" style="fill:#313131;stroke:#313131;"></polygon><polygon stroke-linejoin="round" stroke-miterlimit="1" stroke-width="1" points="1595,391.5 1328,455.5 1532,581.5" style="fill:#4c4c4c;stroke:#4c4c4c;"></polygon><polygon stroke-linejoin="round" stroke-miterlimit="1" stroke-width="1" points="1595,391.5 1414,196.5 1328,455.5" style="fill:#757575;stroke:#757575;"></polygon><polygon stroke-linejoin="round" stroke-miterlimit="1" stroke-width="1" points="1532,581.5 1328,455.5 1432,661.5" style="fill:#414141;stroke:#414141;"></polygon><polygon stroke-linejoin="round" stroke-miterlimit="1" stroke-width="1" points="1432,661.5 1328,455.5 1389,667.5" style="fill:#3a3a3a;stroke:#3a3a3a;"></polygon><polygon stroke-linejoin="round" stroke-miterlimit="1" stroke-width="1" points="1464,31.5 1345,-13.5 1414,196.5" style="fill:#444444;stroke:#444444;"></polygon><polygon stroke-linejoin="round" stroke-miterlimit="1" stroke-width="1" points="1464,31.5 1366,-67.5 1345,-13.5" style="fill:#424242;stroke:#424242;"></polygon><polygon stroke-linejoin="round" stroke-miterlimit="1" stroke-width="1" points="1389,667.5 1328,455.5 1254,500.5" style="fill:#4c4c4c;stroke:#4c4c4c;"></polygon><polygon stroke-linejoin="round" stroke-miterlimit="1" stroke-width="1" points="1414,196.5 1007,418.5 1328,455.5" style="fill:#757575;stroke:#757575;"></polygon><polygon stroke-linejoin="round" stroke-miterlimit="1" stroke-width="1" points="1414,196.5 1345,-13.5 1099,-67.5" style="fill:#3f3f3f;stroke:#3f3f3f;"></polygon><polygon stroke-linejoin="round" stroke-miterlimit="1" stroke-width="1" points="1414,196.5 1099,-67.5 1007,418.5" style="fill:#4a4a4a;stroke:#4a4a4a;"></polygon><polygon stroke-linejoin="round" stroke-miterlimit="1" stroke-width="1" points="1328,455.5 1007,418.5 1254,500.5" style="fill:#4d4d4d;stroke:#4d4d4d;"></polygon><polygon stroke-linejoin="round" stroke-miterlimit="1" stroke-width="1" points="1389,667.5 1254,500.5 1168,681.5" style="fill:#383838;stroke:#383838;"></polygon><polygon stroke-linejoin="round" stroke-miterlimit="1" stroke-width="1" points="1099,-67.5 868,151.5 1007,418.5" style="fill:#343434;stroke:#343434;"></polygon><polygon stroke-linejoin="round" stroke-miterlimit="1" stroke-width="1" points="1366,-67.5 1099,-67.5 1345,-13.5" style="fill:#2d2d2d;stroke:#2d2d2d;"></polygon><polygon stroke-linejoin="round" stroke-miterlimit="1" stroke-width="1" points="1254,500.5 1058,549.5 1111,617.5" style="fill:#363636;stroke:#363636;"></polygon><polygon stroke-linejoin="round" stroke-miterlimit="1" stroke-width="1" points="1254,500.5 1007,418.5 1058,549.5" style="fill:#3c3c3c;stroke:#3c3c3c;"></polygon><polygon stroke-linejoin="round" stroke-miterlimit="1" stroke-width="1" points="1254,500.5 1111,617.5 1168,681.5" style="fill:#393939;stroke:#393939;"></polygon><polygon stroke-linejoin="round" stroke-miterlimit="1" stroke-width="1" points="1007,418.5 868,151.5 847,260.5" style="fill:#2b2b2b;stroke:#2b2b2b;"></polygon><polygon stroke-linejoin="round" stroke-miterlimit="1" stroke-width="1" points="1168,681.5 1111,617.5 1070,688.5" style="fill:#2d2d2d;stroke:#2d2d2d;"></polygon><polygon stroke-linejoin="round" stroke-miterlimit="1" stroke-width="1" points="1007,418.5 847,260.5 871,356.5" style="fill:#2c2c2c;stroke:#2c2c2c;"></polygon><polygon stroke-linejoin="round" stroke-miterlimit="1" stroke-width="1" points="1058,549.5 1007,418.5 991,444.5" style="fill:#3e3e3e;stroke:#3e3e3e;"></polygon><polygon stroke-linejoin="round" stroke-miterlimit="1" stroke-width="1" points="1099,-67.5 784,-67.5 868,151.5" style="fill:#292929;stroke:#292929;"></polygon><polygon stroke-linejoin="round" stroke-miterlimit="1" stroke-width="1" points="1111,617.5 1058,549.5 1070,688.5" style="fill:#272727;stroke:#272727;"></polygon><polygon stroke-linejoin="round" stroke-miterlimit="1" stroke-width="1" points="1070,688.5 1058,549.5 863,559.5" style="fill:#2d2d2d;stroke:#2d2d2d;"></polygon><polygon stroke-linejoin="round" stroke-miterlimit="1" stroke-width="1" points="1070,688.5 863,559.5 775,721.5" style="fill:#2b2b2b;stroke:#2b2b2b;"></polygon><polygon stroke-linejoin="round" stroke-miterlimit="1" stroke-width="1" points="1058,549.5 991,444.5 863,559.5" style="fill:#2a2a2a;stroke:#2a2a2a;"></polygon><polygon stroke-linejoin="round" stroke-miterlimit="1" stroke-width="1" points="684,721.5 548,672.5 113,721.5" style="fill:#232323;stroke:#232323;"></polygon><polygon stroke-linejoin="round" stroke-miterlimit="1" stroke-width="1" points="1007,418.5 871,356.5 991,444.5" style="fill:#2a2a2a;stroke:#2a2a2a;"></polygon><polygon stroke-linejoin="round" stroke-miterlimit="1" stroke-width="1" points="991,444.5 871,356.5 819,436.5" style="fill:#2d2d2d;stroke:#2d2d2d;"></polygon><polygon stroke-linejoin="round" stroke-miterlimit="1" stroke-width="1" points="991,444.5 819,436.5 863,559.5" style="fill:#2f2f2f;stroke:#2f2f2f;"></polygon><polygon stroke-linejoin="round" stroke-miterlimit="1" stroke-width="1" points="863,559.5 648,650.5 775,721.5" style="fill:#242424;stroke:#242424;"></polygon><polygon stroke-linejoin="round" stroke-miterlimit="1" stroke-width="1" points="868,151.5 784,-67.5 701,5.5" style="fill:#242424;stroke:#242424;"></polygon><polygon stroke-linejoin="round" stroke-miterlimit="1" stroke-width="1" points="868,151.5 701,5.5 764,171.5" style="fill:#272727;stroke:#272727;"></polygon><polygon stroke-linejoin="round" stroke-miterlimit="1" stroke-width="1" points="868,151.5 764,171.5 847,260.5" style="fill:#252525;stroke:#252525;"></polygon><polygon stroke-linejoin="round" stroke-miterlimit="1" stroke-width="1" points="871,356.5 847,260.5 737,325.5" style="fill:#2b2b2b;stroke:#2b2b2b;"></polygon><polygon stroke-linejoin="round" stroke-miterlimit="1" stroke-width="1" points="871,356.5 737,325.5 819,436.5" style="fill:#282828;stroke:#282828;"></polygon><polygon stroke-linejoin="round" stroke-miterlimit="1" stroke-width="1" points="863,559.5 819,436.5 614,613.5" style="fill:#262626;stroke:#262626;"></polygon><polygon stroke-linejoin="round" stroke-miterlimit="1" stroke-width="1" points="863,559.5 614,613.5 648,650.5" style="fill:#272727;stroke:#272727;"></polygon><polygon stroke-linejoin="round" stroke-miterlimit="1" stroke-width="1" points="847,260.5 764,171.5 695,244.5" style="fill:#282828;stroke:#282828;"></polygon><polygon stroke-linejoin="round" stroke-miterlimit="1" stroke-width="1" points="847,260.5 695,244.5 737,325.5" style="fill:#252525;stroke:#252525;"></polygon><polygon stroke-linejoin="round" stroke-miterlimit="1" stroke-width="1" points="548,672.5 261,654.5 113,721.5" style="fill:#1c1c1c;stroke:#1c1c1c;"></polygon><polygon stroke-linejoin="round" stroke-miterlimit="1" stroke-width="1" points="784,-67.5 684,-67.5 719,-53.5" style="fill:#2e2e2e;stroke:#2e2e2e;"></polygon><polygon stroke-linejoin="round" stroke-miterlimit="1" stroke-width="1" points="784,-67.5 719,-53.5 701,5.5" style="fill:#222222;stroke:#222222;"></polygon><polygon stroke-linejoin="round" stroke-miterlimit="1" stroke-width="1" points="819,436.5 737,325.5 614,613.5" style="fill:#2b2b2b;stroke:#2b2b2b;"></polygon><polygon stroke-linejoin="round" stroke-miterlimit="1" stroke-width="1" points="775,721.5 648,650.5 684,721.5" style="fill:#1e1e1e;stroke:#1e1e1e;"></polygon><polygon stroke-linejoin="round" stroke-miterlimit="1" stroke-width="1" points="737,325.5 426,449.5 614,613.5" style="fill:#232323;stroke:#232323;"></polygon><polygon stroke-linejoin="round" stroke-miterlimit="1" stroke-width="1" points="764,171.5 701,5.5 627,4.5" style="fill:#292929;stroke:#292929;"></polygon><polygon stroke-linejoin="round" stroke-miterlimit="1" stroke-width="1" points="764,171.5 539,70.5 695,244.5" style="fill:#272727;stroke:#272727;"></polygon><polygon stroke-linejoin="round" stroke-miterlimit="1" stroke-width="1" points="764,171.5 627,4.5 539,70.5" style="fill:#232323;stroke:#232323;"></polygon><polygon stroke-linejoin="round" stroke-miterlimit="1" stroke-width="1" points="737,325.5 695,244.5 426,449.5" style="fill:#262626;stroke:#262626;"></polygon><polygon stroke-linejoin="round" stroke-miterlimit="1" stroke-width="1" points="719,-53.5 684,-67.5 701,5.5" style="fill:#2e2e2e;stroke:#2e2e2e;"></polygon><polygon stroke-linejoin="round" stroke-miterlimit="1" stroke-width="1" points="695,244.5 378,237.5 426,449.5" style="fill:#212121;stroke:#212121;"></polygon><polygon stroke-linejoin="round" stroke-miterlimit="1" stroke-width="1" points="701,5.5 684,-67.5 627,4.5" style="fill:#1e1e1e;stroke:#1e1e1e;"></polygon><polygon stroke-linejoin="round" stroke-miterlimit="1" stroke-width="1" points="695,244.5 539,70.5 378,237.5" style="fill:#222222;stroke:#222222;"></polygon><polygon stroke-linejoin="round" stroke-miterlimit="1" stroke-width="1" points="684,-67.5 557,-67.5 627,4.5" style="fill:#242424;stroke:#242424;"></polygon><polygon stroke-linejoin="round" stroke-miterlimit="1" stroke-width="1" points="684,721.5 648,650.5 548,672.5" style="fill:#272727;stroke:#272727;"></polygon><polygon stroke-linejoin="round" stroke-miterlimit="1" stroke-width="1" points="648,650.5 614,613.5 548,672.5" style="fill:#1f1f1f;stroke:#1f1f1f;"></polygon><polygon stroke-linejoin="round" stroke-miterlimit="1" stroke-width="1" points="614,613.5 426,449.5 548,672.5" style="fill:#1f1f1f;stroke:#1f1f1f;"></polygon><polygon stroke-linejoin="round" stroke-miterlimit="1" stroke-width="1" points="627,4.5 557,-67.5 539,70.5" style="fill:#242424;stroke:#242424;"></polygon><polygon stroke-linejoin="round" stroke-miterlimit="1" stroke-width="1" points="557,-67.5 301,-67.5 372,-26.5" style="fill:#181818;stroke:#181818;"></polygon><polygon stroke-linejoin="round" stroke-miterlimit="1" stroke-width="1" points="557,-67.5 489,-25.5 539,70.5" style="fill:#262626;stroke:#262626;"></polygon><polygon stroke-linejoin="round" stroke-miterlimit="1" stroke-width="1" points="548,672.5 426,449.5 296,550.5" style="fill:#1e1e1e;stroke:#1e1e1e;"></polygon><polygon stroke-linejoin="round" stroke-miterlimit="1" stroke-width="1" points="557,-67.5 372,-26.5 489,-25.5" style="fill:#252525;stroke:#252525;"></polygon><polygon stroke-linejoin="round" stroke-miterlimit="1" stroke-width="1" points="539,70.5 409,6.5 378,237.5" style="fill:#1e1e1e;stroke:#1e1e1e;"></polygon><polygon stroke-linejoin="round" stroke-miterlimit="1" stroke-width="1" points="548,672.5 296,550.5 261,654.5" style="fill:#1e1e1e;stroke:#1e1e1e;"></polygon><polygon stroke-linejoin="round" stroke-miterlimit="1" stroke-width="1" points="539,70.5 489,-25.5 409,6.5" style="fill:#1a1a1a;stroke:#1a1a1a;"></polygon><polygon stroke-linejoin="round" stroke-miterlimit="1" stroke-width="1" points="426,449.5 378,237.5 321,261.5" style="fill:#2a2a2a;stroke:#2a2a2a;"></polygon><polygon stroke-linejoin="round" stroke-miterlimit="1" stroke-width="1" points="489,-25.5 372,-26.5 409,6.5" style="fill:#1f1f1f;stroke:#1f1f1f;"></polygon><polygon stroke-linejoin="round" stroke-miterlimit="1" stroke-width="1" points="372,-26.5 301,-67.5 321,261.5" style="fill:#252525;stroke:#252525;"></polygon><polygon stroke-linejoin="round" stroke-miterlimit="1" stroke-width="1" points="409,6.5 321,261.5 378,237.5" style="fill:#1d1d1d;stroke:#1d1d1d;"></polygon><polygon stroke-linejoin="round" stroke-miterlimit="1" stroke-width="1" points="409,6.5 372,-26.5 321,261.5" style="fill:#1f1f1f;stroke:#1f1f1f;"></polygon><polygon stroke-linejoin="round" stroke-miterlimit="1" stroke-width="1" points="426,449.5 321,261.5 270,540.5" style="fill:#1c1c1c;stroke:#1c1c1c;"></polygon><polygon stroke-linejoin="round" stroke-miterlimit="1" stroke-width="1" points="426,449.5 270,540.5 296,550.5" style="fill:#151515;stroke:#151515;"></polygon><polygon stroke-linejoin="round" stroke-miterlimit="1" stroke-width="1" points="321,261.5 115,457.5 270,540.5" style="fill:#1a1a1a;stroke:#1a1a1a;"></polygon><polygon stroke-linejoin="round" stroke-miterlimit="1" stroke-width="1" points="321,261.5 301,-67.5 21,-60.5" style="fill:#1d1d1d;stroke:#1d1d1d;"></polygon><polygon stroke-linejoin="round" stroke-miterlimit="1" stroke-width="1" points="321,261.5 21,-60.5 75,316.5" style="fill:#1f1f1f;stroke:#1f1f1f;"></polygon><polygon stroke-linejoin="round" stroke-miterlimit="1" stroke-width="1" points="321,261.5 75,316.5 115,457.5" style="fill:#1b1b1b;stroke:#1b1b1b;"></polygon><polygon stroke-linejoin="round" stroke-miterlimit="1" stroke-width="1" points="296,550.5 270,540.5 261,654.5" style="fill:#191919;stroke:#191919;"></polygon><polygon stroke-linejoin="round" stroke-miterlimit="1" stroke-width="1" points="261,654.5 115,457.5 113,721.5" style="fill:#1c1c1c;stroke:#1c1c1c;"></polygon><polygon stroke-linejoin="round" stroke-miterlimit="1" stroke-width="1" points="270,540.5 115,457.5 261,654.5" style="fill:#161616;stroke:#161616;"></polygon><polygon stroke-linejoin="round" stroke-miterlimit="1" stroke-width="1" points="75,316.5 -120,-67.5 -252,373.5" style="fill:#1c1c1c;stroke:#1c1c1c;"></polygon><polygon stroke-linejoin="round" stroke-miterlimit="1" stroke-width="1" points="75,316.5 21,-60.5 -120,-67.5" style="fill:#191919;stroke:#191919;"></polygon><polygon stroke-linejoin="round" stroke-miterlimit="1" stroke-width="1" points="113,721.5 -68,428.5 -190,579.5" style="fill:#181818;stroke:#181818;"></polygon><polygon stroke-linejoin="round" stroke-miterlimit="1" stroke-width="1" points="113,721.5 -190,579.5 -196,721.5" style="fill:#1a1a1a;stroke:#1a1a1a;"></polygon><polygon stroke-linejoin="round" stroke-miterlimit="1" stroke-width="1" points="115,457.5 -68,428.5 113,721.5" style="fill:#161616;stroke:#161616;"></polygon><polygon stroke-linejoin="round" stroke-miterlimit="1" stroke-width="1" points="115,457.5 75,316.5 -68,428.5" style="fill:#1c1c1c;stroke:#1c1c1c;"></polygon><polygon stroke-linejoin="round" stroke-miterlimit="1" stroke-width="1" points="75,316.5 -252,373.5 -68,428.5" style="fill:#1a1a1a;stroke:#1a1a1a;"></polygon><polygon stroke-linejoin="round" stroke-miterlimit="1" stroke-width="1" points="-120,-67.5 -207,-67.5 -252,373.5" style="fill:#171717;stroke:#171717;"></polygon><polygon stroke-linejoin="round" stroke-miterlimit="1" stroke-width="1" points="-207,-67.5 -332,342.5 -252,373.5" style="fill:#202020;stroke:#202020;"></polygon><polygon stroke-linejoin="round" stroke-miterlimit="1" stroke-width="1" points="-68,428.5 -252,373.5 -190,579.5" style="fill:#1a1a1a;stroke:#1a1a1a;"></polygon><polygon stroke-linejoin="round" stroke-miterlimit="1" stroke-width="1" points="-207,-67.5 -484,214.5 -332,342.5" style="fill:#1a1a1a;stroke:#1a1a1a;"></polygon><polygon stroke-linejoin="round" stroke-miterlimit="1" stroke-width="1" points="-207,-67.5 -474,-30.5 -484,214.5" style="fill:#171717;stroke:#171717;"></polygon><polygon stroke-linejoin="round" stroke-miterlimit="1" stroke-width="1" points="-190,579.5 -252,373.5 -282,562.5" style="fill:#151515;stroke:#151515;"></polygon><polygon stroke-linejoin="round" stroke-miterlimit="1" stroke-width="1" points="-252,373.5 -370,510.5 -282,562.5" style="fill:#181818;stroke:#181818;"></polygon><polygon stroke-linejoin="round" stroke-miterlimit="1" stroke-width="1" points="-207,-67.5 -510,-67.5 -474,-30.5" style="fill:#181818;stroke:#181818;"></polygon><polygon stroke-linejoin="round" stroke-miterlimit="1" stroke-width="1" points="-196,721.5 -282,562.5 -304,570.5" style="fill:#121212;stroke:#121212;"></polygon><polygon stroke-linejoin="round" stroke-miterlimit="1" stroke-width="1" points="-196,721.5 -304,570.5 -371,721.5" style="fill:#1a1a1a;stroke:#1a1a1a;"></polygon><polygon stroke-linejoin="round" stroke-miterlimit="1" stroke-width="1" points="-190,579.5 -282,562.5 -196,721.5" style="fill:#1d1d1d;stroke:#1d1d1d;"></polygon><polygon stroke-linejoin="round" stroke-miterlimit="1" stroke-width="1" points="-332,342.5 -415,433.5 -370,510.5" style="fill:#202020;stroke:#202020;"></polygon><polygon stroke-linejoin="round" stroke-miterlimit="1" stroke-width="1" points="-304,570.5 -354,576.5 -371,721.5" style="fill:#202020;stroke:#202020;"></polygon><polygon stroke-linejoin="round" stroke-miterlimit="1" stroke-width="1" points="-252,373.5 -332,342.5 -370,510.5" style="fill:#121212;stroke:#121212;"></polygon><polygon stroke-linejoin="round" stroke-miterlimit="1" stroke-width="1" points="-282,562.5 -370,510.5 -304,570.5" style="fill:#191919;stroke:#191919;"></polygon><polygon stroke-linejoin="round" stroke-miterlimit="1" stroke-width="1" points="-474,-30.5 -510,-9.5 -484,214.5" style="fill:#232323;stroke:#232323;"></polygon><polygon stroke-linejoin="round" stroke-miterlimit="1" stroke-width="1" points="-304,570.5 -370,510.5 -354,576.5" style="fill:#171717;stroke:#171717;"></polygon><polygon stroke-linejoin="round" stroke-miterlimit="1" stroke-width="1" points="-354,576.5 -406,721.5 -371,721.5" style="fill:#131313;stroke:#131313;"></polygon><polygon stroke-linejoin="round" stroke-miterlimit="1" stroke-width="1" points="-354,576.5 -370,510.5 -390,535.5" style="fill:#131313;stroke:#131313;"></polygon><polygon stroke-linejoin="round" stroke-miterlimit="1" stroke-width="1" points="-332,342.5 -510,327.5 -415,433.5" style="fill:#1d1d1d;stroke:#1d1d1d;"></polygon><polygon stroke-linejoin="round" stroke-miterlimit="1" stroke-width="1" points="-332,342.5 -484,214.5 -510,327.5" style="fill:#181818;stroke:#181818;"></polygon><polygon stroke-linejoin="round" stroke-miterlimit="1" stroke-width="1" points="-406,721.5 -510,684.5 -467,721.5" style="fill:#1f1f1f;stroke:#1f1f1f;"></polygon><polygon stroke-linejoin="round" stroke-miterlimit="1" stroke-width="1" points="-354,576.5 -510,684.5 -406,721.5" style="fill:#181818;stroke:#181818;"></polygon><polygon stroke-linejoin="round" stroke-miterlimit="1" stroke-width="1" points="-354,576.5 -390,535.5 -482,533.5" style="fill:#141414;stroke:#141414;"></polygon><polygon stroke-linejoin="round" stroke-miterlimit="1" stroke-width="1" points="-354,576.5 -482,533.5 -510,684.5" style="fill:#1b1b1b;stroke:#1b1b1b;"></polygon><polygon stroke-linejoin="round" stroke-miterlimit="1" stroke-width="1" points="-484,214.5 -510,238.5 -510,327.5" style="fill:#292929;stroke:#292929;"></polygon><polygon stroke-linejoin="round" stroke-miterlimit="1" stroke-width="1" points="-370,510.5 -415,433.5 -390,535.5" style="fill:#141414;stroke:#141414;"></polygon><polygon stroke-linejoin="round" stroke-miterlimit="1" stroke-width="1" points="-484,214.5 -510,-9.5 -510,214.5" style="fill:#161616;stroke:#161616;"></polygon><polygon stroke-linejoin="round" stroke-miterlimit="1" stroke-width="1" points="-390,535.5 -415,433.5 -482,533.5" style="fill:#151515;stroke:#151515;"></polygon><polygon stroke-linejoin="round" stroke-miterlimit="1" stroke-width="1" points="-415,433.5 -510,456.5 -482,533.5" style="fill:#1f1f1f;stroke:#1f1f1f;"></polygon><polygon stroke-linejoin="round" stroke-miterlimit="1" stroke-width="1" points="-415,433.5 -510,327.5 -510,446.5" style="fill:#131313;stroke:#131313;"></polygon><polygon stroke-linejoin="round" stroke-miterlimit="1" stroke-width="1" points="-415,433.5 -510,446.5 -510,456.5" style="fill:#1c1c1c;stroke:#1c1c1c;"></polygon><polygon stroke-linejoin="round" stroke-miterlimit="1" stroke-width="1" points="-467,721.5 -510,684.5 -492,721.5" style="fill:#1b1b1b;stroke:#1b1b1b;"></polygon><polygon stroke-linejoin="round" stroke-miterlimit="1" stroke-width="1" points="-484,214.5 -510,224.5 -510,238.5" style="fill:#171717;stroke:#171717;"></polygon><polygon stroke-linejoin="round" stroke-miterlimit="1" stroke-width="1" points="-474,-30.5 -510,-67.5 -510,-9.5" style="fill:#2b2b2b;stroke:#2b2b2b;"></polygon><polygon stroke-linejoin="round" stroke-miterlimit="1" stroke-width="1" points="-492,721.5 -510,684.5 -510,721.5" style="fill:#272727;stroke:#272727;"></polygon><polygon stroke-linejoin="round" stroke-miterlimit="1" stroke-width="1" points="-482,533.5 -510,456.5 -510,684.5" style="fill:#151515;stroke:#151515;"></polygon><polygon stroke-linejoin="round" stroke-miterlimit="1" stroke-width="1" points="-484,214.5 -510,214.5 -510,224.5" style="fill:#161616;stroke:#161616;"></polygon></svg>